# xmcd CD database file
#
# Track frame offsets:
#	150
#	22439
#	42989
#	61109
#	93823
#	109398
#	127887
#	146994
#	164918
#	187894
#	208839
#
# Disc length: 3015 seconds
#
# Revision: 0
# Processed by: cddbd v1.5.1PL2 Copyright (c) Steve Scherf et al.
# Submitted via: CDex 1.51
#
DISCID=a60bc50b
DTITLE=Serafin - 2am at the Torch Cafe
DYEAR=2005
DGENRE=Jazz
TTITLE0=Calling You
TTITLE1=The Crying Game
TTITLE2=Here Comes the Rain Again
TTITLE3=Everybody Hurts
TTITLE4=Bang Bang
TTITLE5=Goodnight Moon
TTITLE6=Time After Time
TTITLE7=Constant Craving
TTITLE8=My Funny Valentine
TTITLE9=At Last
TTITLE10=Miss Celie's Blues
EXTD=YEAR: 2005
EXTT0=
EXTT1=
EXTT2=
EXTT3=
EXTT4=
EXTT5=
EXTT6=
EXTT7=
EXTT8=
EXTT9=
EXTT10=
PLAYORDER=
